<?xml version="1.0" encoding="iso-8859-1"?>
<svg xmlns="http://www.w3.org/2000/svg" xmlns:xlink="http://www.w3.org/1999/xlink" version="1.1" viewBox="0 0 30.1 30.1" enable-background="new 0 0 30.1 30.1" width="512px" height="512px">
  <path d="m30.05,6.5c0-0.5-0.2-1-0.6-1.4l-4.5-4.5c-0.4-0.4-0.9-0.6-1.4-0.6s-1,0.2-1.4,0.6l-18.5,18.5c-0.8,0.8-1.4,1.8-1.7,2.9l-1.9,6.8c0,0.1 0,0.2 0,0.3 0,0.5 0.4,1 1,1 0.1,0 0.2,0 0.3,0l6.8-1.9c1.1-0.3 2.1-0.9 2.9-1.7l18.5-18.5c0.3-0.5 0.5-1 0.5-1.5zm-5.8,3.4c0,0.3-0.1,0.5-0.3,0.7 0,0-6.7,6.7-9.2,9.2-2,2-7.6,5-10,5-0.7,0-1.2-0.3-1.2-0.9 0-0.2 0-0.3 0.1-0.5 0.4-1.3 1.1-2.5 2-3.4l13.8-13.8c0.2-0.2 0.4-0.3 0.7-0.3 0.2,0 0.5,0.1 0.7,0.3l3.1,3.1c0.2,0.1 0.3,0.3 0.3,0.6zm2.8-4.2c0,0.7-1,1.2-1.9,1.2-0.4,0-0.7-0.1-0.9-0.3l-1.9-1.9c-0.2-0.2-0.3-0.4-0.3-0.7s0.1-0.5 0.3-0.7l.6-.6c0.2-0.2 0.4-0.3 0.7-0.3s0.5,0.1 0.7,0.3l2.5,2.5c0.1,0.1 0.2,0.3 0.2,0.5z" fill="#222222"/>
</svg>
